<svg width="16" height="16" viewBox="0 0 16 16" fill="none" xmlns="http://www.w3.org/2000/svg">
<g clip-path="url(#clip0_2809_389)">
<path d="M13.3244 6.66233C13.3244 9.9888 9.63419 13.4532 8.39501 14.5231C8.27957 14.6099 8.13904 14.6569 7.99461 14.6569C7.85017 14.6569 7.70965 14.6099 7.59421 14.5231C6.35502 13.4532 2.66479 9.9888 2.66479 6.66233C2.66479 5.24878 3.22633 3.89312 4.22586 2.89359C5.22539 1.89405 6.58105 1.33252 7.99461 1.33252C9.40816 1.33252 10.7638 1.89405 11.7634 2.89359C12.7629 3.89312 13.3244 5.24878 13.3244 6.66233Z" stroke="white" stroke-width="1.33245" stroke-linecap="round" stroke-linejoin="round"/>
<path d="M7.99477 8.66093C9.09861 8.66093 9.99345 7.76609 9.99345 6.66225C9.99345 5.55841 9.09861 4.66357 7.99477 4.66357C6.89093 4.66357 5.99609 5.55841 5.99609 6.66225C5.99609 7.76609 6.89093 8.66093 7.99477 8.66093Z" stroke="white" stroke-width="1.33245" stroke-linecap="round" stroke-linejoin="round"/>
</g>
<defs>
<clipPath id="clip0_2809_389">
<rect width="15.9894" height="15.9894" fill="white"/>
</clipPath>
</defs>
</svg>
