<svg xmlns="http://www.w3.org/2000/svg" width="20" height="20" viewBox="0 0 20 20" fill="none">
<path d="M6.4767 2.02876L7.3742 1.74209C8.2142 1.47376 9.11253 1.90793 9.47254 2.75626L10.1892 4.44626C10.5017 5.18209 10.3284 6.04793 9.76087 6.58626L8.18337 8.08459C8.28087 8.98126 8.5817 9.86376 9.0867 10.7321C9.56656 11.5722 10.2101 12.3076 10.9792 12.8946L12.8759 12.2613C13.5942 12.0221 14.3767 12.2979 14.8175 12.9454L15.8442 14.4538C16.3575 15.2071 16.265 16.2454 15.6292 16.8838L14.9475 17.5679C14.2692 18.2488 13.3009 18.4963 12.4042 18.2163C10.2884 17.5563 8.34337 15.5971 6.56837 12.3388C4.79087 9.07543 4.1642 6.30543 4.6867 4.03209C4.9067 3.07543 5.58837 2.31293 6.47837 2.02876H6.4767Z" fill="#8380FF"/>
</svg>