<svg width="40" height="40" viewBox="0 0 40 40" fill="none" xmlns="http://www.w3.org/2000/svg">
<ellipse cx="19.9608" cy="20" rx="19.9608" ry="20" fill="#C9CEFF"/>
<path fill-rule="evenodd" clip-rule="evenodd" d="M18.5572 0.0459644C18.4071 0.0636207 17.951 0.114246 17.5436 0.158543C13.8842 0.556355 10.1128 2.1905 7.18283 4.64768C3.27956 7.9212 0.819468 12.4389 0.141814 17.5779C0.0155777 18.5352 0.0155777 21.4644 0.141814 22.4217C0.752256 27.0508 2.73368 31.0512 6.01193 34.2729C9.17728 37.3837 13.0598 39.264 17.5436 39.8576C18.499 39.9841 21.4224 39.9841 22.3778 39.8576C28.7919 39.0085 34.1702 35.389 37.3743 29.7654C38.6485 27.5291 39.5494 24.6982 39.7735 22.2264C39.8202 21.7107 39.8902 21.2278 39.929 21.1532C40.0284 20.962 40.0213 18.7271 39.9215 18.7889C39.8741 18.8182 39.8435 18.7043 39.8435 18.4985C39.8435 17.5078 39.44 15.3873 38.9726 13.9226C37.4351 9.10378 34.1821 5.11159 29.7072 2.55198C27.6031 1.34839 24.9939 0.48573 22.4558 0.154402C21.772 0.0651832 19.0406 -0.0108324 18.5572 0.0459644ZM18.6845 8.70987C15.9543 9.27878 13.8923 11.2053 13.1648 13.867C13.0254 14.3765 12.9938 14.7013 12.9938 15.6248C12.9938 16.5483 13.0254 16.8731 13.1648 17.3826C13.8416 19.8587 15.7858 21.8041 18.1993 22.4204C18.5385 22.5071 18.904 22.5779 19.0116 22.5779C19.4437 22.5779 19.067 22.675 18.2353 22.7778C14.1449 23.284 10.5104 25.5508 8.23249 29.0166C7.7578 29.7389 6.86245 31.5112 6.86182 31.7298C6.86159 31.8005 7.23375 32.2145 7.68871 32.6497C10.4182 35.2608 13.6971 36.8906 17.3876 37.4705C18.0467 37.5741 18.7286 37.6114 19.9607 37.6114C21.1928 37.6114 21.8748 37.5741 22.5338 37.4705C26.2243 36.8906 29.5032 35.2608 32.2327 32.6497C32.6877 32.2145 33.0598 31.8005 33.0596 31.7298C33.059 31.5112 32.1636 29.7389 31.6889 29.0166C29.411 25.5508 25.7766 23.284 21.6861 22.7778C20.8544 22.675 20.4777 22.5779 20.9099 22.5779C21.2658 22.5779 22.3303 22.267 22.8995 21.9967C24.8094 21.0902 26.1969 19.4303 26.7567 17.3826C26.896 16.8731 26.9276 16.5483 26.9276 15.6248C26.9276 14.7013 26.896 14.3765 26.7567 13.867C26.0796 11.3898 24.159 9.46792 21.7151 8.82175C20.9054 8.60761 19.4355 8.55339 18.6845 8.70987ZM0.03125 19.9998C0.03125 20.6658 0.0432577 20.9382 0.0578384 20.6053C0.0724971 20.2723 0.0724971 19.7273 0.0578384 19.3943C0.0432577 19.0614 0.03125 19.3338 0.03125 19.9998Z" fill="white"/>
</svg>
